<svg width="15" height="14" viewBox="0 0 15 14" fill="none" xmlns="http://www.w3.org/2000/svg">
<path d="M14.8098 1.82389C14.661 1.65356 14.4467 1.55556 14.2208 1.55556H3.45272L3.30077 0.650222C3.23844 0.275333 2.9135 0 2.53246 0H0.77922C0.348311 0 0 0.347667 0 0.777778C0 1.20789 0.348311 1.55556 0.77922 1.55556H1.87246L3.32181 10.2387C3.32805 10.2737 3.34597 10.3024 3.35688 10.3351C3.36935 10.3763 3.37948 10.4152 3.39896 10.4526C3.42389 10.5039 3.4574 10.5474 3.49246 10.5918C3.51662 10.6221 3.53844 10.6524 3.56649 10.6789C3.61168 10.7209 3.66389 10.7504 3.71688 10.78C3.74649 10.7963 3.7722 10.8181 3.80415 10.8306C3.89454 10.8671 3.9896 10.8889 4.09012 10.8889C4.0909 10.8889 12.6623 10.8889 12.6623 10.8889C13.0932 10.8889 13.4415 10.5412 13.4415 10.1111C13.4415 9.681 13.0932 9.33333 12.6623 9.33333H4.7509L4.62155 8.55556H13.4415C13.8296 8.55556 14.1584 8.27089 14.213 7.88822L14.9922 2.44378C15.0241 2.21978 14.9571 1.99344 14.8098 1.82389ZM13.3223 3.11111L13.1002 4.66667H10.3247V3.11111H13.3223ZM9.54544 3.11111V4.66667H7.20778V3.11111H9.54544ZM9.54544 5.44444V7H7.20778V5.44444H9.54544ZM6.42856 3.11111V4.66667H4.0909C4.0496 4.66667 4.0122 4.67833 3.97558 4.69L3.7122 3.11111H6.42856ZM4.10181 5.44444H6.42856V7H4.36129L4.10181 5.44444ZM10.3247 7V5.44444H12.988L12.766 7H10.3247Z" fill="#FFAF1E"/>
<path d="M5.25941 14C5.90493 14 6.42823 13.4777 6.42823 12.8334C6.42823 12.189 5.90493 11.6667 5.25941 11.6667C4.61388 11.6667 4.09058 12.189 4.09058 12.8334C4.09058 13.4777 4.61388 14 5.25941 14Z" fill="#FFAF1E"/>
<path d="M12.2723 14C12.9179 14 13.4412 13.4777 13.4412 12.8334C13.4412 12.189 12.9179 11.6667 12.2723 11.6667C11.6268 11.6667 11.1035 12.189 11.1035 12.8334C11.1035 13.4777 11.6268 14 12.2723 14Z" fill="#FFAF1E"/>
</svg>
